<svg width="100" height="106" viewBox="0 0 100 106" fill="none" xmlns="http://www.w3.org/2000/svg">
<rect width="134" height="142" rx="28" transform="scale(0.746269)" fill="#343841"/>
<circle cx="10" cy="10" r="10" transform="translate(37.3134 71.7479) scale(0.746269) rotate(-45)" fill="#A259FF"/>
<rect width="20" height="10" transform="translate(53.1442 77.0248) scale(0.746268) rotate(-135)" fill="#A259FF"/>
<circle cx="10" cy="10" r="10" transform="translate(47.7612 82.1956) scale(0.746269) rotate(-45)" fill="#0ACF83"/>
<rect width="10.832" height="10" transform="translate(58.754 82.6347) scale(0.746268) rotate(-135)" fill="#0ACF83"/>
<circle cx="10" cy="10" r="10" transform="translate(47.7612 61.3001) scale(0.746269) rotate(-45)" fill="#1ABCFE"/>
<circle cx="10" cy="10" r="10" transform="translate(22.3881 57.5688) scale(0.746269) rotate(-45)" fill="#F24E1E"/>
<rect width="20" height="10" transform="translate(38.2188 62.8457) scale(0.746268) rotate(-135)" fill="#F24E1E"/>
<circle cx="10" cy="10" r="10" transform="translate(77.0778 23.9867) scale(0.746269) rotate(135)" fill="#FF7262"/>
<rect width="20" height="53.727" transform="translate(61.2471 18.7097) scale(0.746268) rotate(45)" fill="#FF7262"/>
<path d="M6.36328 7.88867C6.36328 8.9043 6.14648 9.69727 5.71289 10.2676C5.2793 10.834 4.67383 11.1172 3.89648 11.1172C3.20898 11.1172 2.66016 10.8535 2.25 10.3262L2.17383 11H0.650391V2H2.34375V5.22852C2.73438 4.77148 3.24805 4.54297 3.88477 4.54297C4.6582 4.54297 5.26367 4.82812 5.70117 5.39844C6.14258 5.96484 6.36328 6.76367 6.36328 7.79492V7.88867ZM4.66992 7.76562C4.66992 7.125 4.56836 6.6582 4.36523 6.36523C4.16211 6.06836 3.85938 5.91992 3.45703 5.91992C2.91797 5.91992 2.54688 6.14062 2.34375 6.58203V9.08398C2.55078 9.5293 2.92578 9.75195 3.46875 9.75195C4.01562 9.75195 4.375 9.48242 4.54688 8.94336C4.62891 8.68555 4.66992 8.29297 4.66992 7.76562ZM10.3301 11.1172C9.40039 11.1172 8.64258 10.832 8.05664 10.2617C7.47461 9.69141 7.18359 8.93164 7.18359 7.98242V7.81836C7.18359 7.18164 7.30664 6.61328 7.55273 6.11328C7.79883 5.60938 8.14648 5.22266 8.5957 4.95312C9.04883 4.67969 9.56445 4.54297 10.1426 4.54297C11.0098 4.54297 11.6914 4.81641 12.1875 5.36328C12.6875 5.91016 12.9375 6.68555 12.9375 7.68945V8.38086H8.90039C8.95508 8.79492 9.11914 9.12695 9.39258 9.37695C9.66992 9.62695 10.0195 9.75195 10.4414 9.75195C11.0938 9.75195 11.6035 9.51562 11.9707 9.04297L12.8027 9.97461C12.5488 10.334 12.2051 10.6152 11.7715 10.8184C11.3379 11.0176 10.8574 11.1172 10.3301 11.1172ZM10.1367 5.91406C9.80078 5.91406 9.52734 6.02734 9.31641 6.25391C9.10938 6.48047 8.97656 6.80469 8.91797 7.22656H11.2734V7.0918C11.2656 6.7168 11.1641 6.42773 10.9688 6.22461C10.7734 6.01758 10.4961 5.91406 10.1367 5.91406ZM15.9316 3.10156V4.66016H17.0156V5.90234H15.9316V9.06641C15.9316 9.30078 15.9766 9.46875 16.0664 9.57031C16.1562 9.67188 16.3281 9.72266 16.582 9.72266C16.7695 9.72266 16.9355 9.70898 17.0801 9.68164V10.9648C16.748 11.0664 16.4062 11.1172 16.0547 11.1172C14.8672 11.1172 14.2617 10.5176 14.2383 9.31836V5.90234H13.3125V4.66016H14.2383V3.10156H15.9316ZM21.6328 11C21.5547 10.8477 21.498 10.6582 21.4629 10.4316C21.0527 10.8887 20.5195 11.1172 19.8633 11.1172C19.2422 11.1172 18.7266 10.9375 18.3164 10.5781C17.9102 10.2188 17.707 9.76562 17.707 9.21875C17.707 8.54688 17.9551 8.03125 18.4512 7.67188C18.9512 7.3125 19.6719 7.13086 20.6133 7.12695H21.3926V6.76367C21.3926 6.4707 21.3164 6.23633 21.1641 6.06055C21.0156 5.88477 20.7793 5.79688 20.4551 5.79688C20.1699 5.79688 19.9453 5.86523 19.7812 6.00195C19.6211 6.13867 19.541 6.32617 19.541 6.56445H17.8477C17.8477 6.19727 17.9609 5.85742 18.1875 5.54492C18.4141 5.23242 18.7344 4.98828 19.1484 4.8125C19.5625 4.63281 20.0273 4.54297 20.543 4.54297C21.3242 4.54297 21.9434 4.74023 22.4004 5.13477C22.8613 5.52539 23.0918 6.07617 23.0918 6.78711V9.53516C23.0957 10.1367 23.1797 10.5918 23.3438 10.9004V11H21.6328ZM20.2324 9.82227C20.4824 9.82227 20.7129 9.76758 20.9238 9.6582C21.1348 9.54492 21.291 9.39453 21.3926 9.20703V8.11719H20.7598C19.9121 8.11719 19.4609 8.41016 19.4062 8.99609L19.4004 9.0957C19.4004 9.30664 19.4746 9.48047 19.623 9.61719C19.7715 9.75391 19.9746 9.82227 20.2324 9.82227Z" transform="translate(14.9254 84.3284) scale(0.746269)" fill="white"/>
</svg>
