<svg width="180" height="180" viewBox="0 0 180 180" fill="none" xmlns="http://www.w3.org/2000/svg">
<defs>
<linearGradient id="paint0_linear" x1="89.4675" y1="8.5207" x2="89.4675" y2="171.479" gradientUnits="userSpaceOnUse">
<stop stop-color="#37E5A5"/>
<stop offset="0.9999" stop-color="#37E5D0"/>
<stop offset="1" stop-color="#FF3D31"/>
</linearGradient>
<clipPath id="clip0">
<path d="M23.5834 104.922C16.4828 97.8209 12.9325 94.2706 12.9325 89.8589C12.9325 85.4471 16.4828 81.8968 23.5834 74.7963L74.7963 23.5833C81.8969 16.4827 85.4472 12.9324 89.8589 12.9324C94.2707 12.9324 97.821 16.4827 104.922 23.5833L156.135 74.7963C163.235 81.8968 166.785 85.4471 166.785 89.8589C166.785 94.2706 163.235 97.8209 156.135 104.922L104.922 156.134C97.821 163.235 94.2707 166.785 89.8589 166.785C85.4472 166.785 81.8969 163.235 74.7963 156.134L23.5834 104.922Z" fill="white"/>
</clipPath>
</defs>
<g clip-path="url(#clip0)">
<path d="M23.5834 104.922C16.4828 97.8209 12.9325 94.2706 12.9325 89.8589C12.9325 85.4471 16.4828 81.8968 23.5834 74.7963L74.7963 23.5833C81.8969 16.4827 85.4472 12.9324 89.8589 12.9324C94.2707 12.9324 97.821 16.4827 104.922 23.5833L156.135 74.7963C163.235 81.8968 166.785 85.4471 166.785 89.8589C166.785 94.2706 163.235 97.8209 156.135 104.922L104.922 156.134C97.821 163.235 94.2707 166.785 89.8589 166.785C85.4472 166.785 81.8969 163.235 74.7963 156.134L23.5834 104.922Z" fill="url(#paint0_linear)"/>
<rect x="38.646" y="89.8589" width="72.426" height="21.3018" rx="10.6509" transform="rotate(-45 38.646 89.8589)" fill="white"/>
<rect x="56.7212" y="107.934" width="51.1243" height="21.3018" rx="10.6509" transform="rotate(-45 56.7212 107.934)" fill="white" fill-opacity="0.41"/>
<rect x="56.7212" y="107.934" width="21.3018" height="21.3018" rx="10.6509" transform="rotate(-45 56.7212 107.934)" fill="white"/>
<rect x="77.8088" y="86.8464" width="21.3018" height="21.3018" rx="10.6509" transform="rotate(-45 77.8088 86.8464)" fill="white"/>
<rect x="74.7963" y="126.009" width="21.3018" height="21.3018" rx="10.6509" transform="rotate(-45 74.7963 126.009)" fill="white"/>
</g>
<path d="M6.54196 89.8589C6.54196 94.0238 8.30574 97.3632 10.5146 100.258C12.5524 102.929 15.4735 105.85 18.7788 109.155C18.8738 109.249 18.969 109.345 19.0646 109.44L70.2775 160.653L70.5633 160.939C73.8681 164.244 76.7887 167.165 79.4596 169.203C82.3546 171.412 85.694 173.176 89.8589 173.176C94.0239 173.176 97.3633 171.412 100.258 169.203C102.929 167.165 105.85 164.244 109.155 160.939L109.44 160.653L160.653 109.44L160.939 109.155C164.244 105.85 167.165 102.929 169.203 100.258C171.412 97.3632 173.176 94.0238 173.176 89.8589C173.176 85.694 171.412 82.3546 169.203 79.4595C167.165 76.7886 164.244 73.868 160.939 70.5632L160.653 70.2775L109.44 19.0645L109.155 18.7787C105.85 15.4734 102.929 12.5523 100.258 10.5145C97.3633 8.30568 94.0239 6.5419 89.859 6.5419C85.694 6.5419 82.3546 8.30568 79.4596 10.5145C76.7887 12.5524 73.8681 15.4734 70.5633 18.7787L70.2775 19.0645L19.0646 70.2775C18.969 70.373 18.8738 70.4683 18.7788 70.5632C15.4735 73.868 12.5524 76.7886 10.5146 79.4595C8.30574 82.3546 6.54196 85.6939 6.54196 89.8589Z" stroke="#37E5A5" stroke-opacity="0.43" stroke-width="12.7811"/>

</svg>
